<?xml version="1.0" encoding="UTF-8"?>
<svg id="Calque_2" data-name="Calque 2" xmlns="http://www.w3.org/2000/svg" viewBox="0 0 195 195">
  <defs>
    <style>
      .cls-1 {
        fill: #f4f4f3;
      }

      .cls-2 {
        fill: #8b8b8c;
      }
    </style>
  </defs>
  <g id="Calque_1-2" data-name="Calque 1">
    <g>
      <rect class="cls-1" width="195" height="195"/>
      <path class="cls-2" d="m123.69,79.62c0-2.15-.54-2.61-2.69-2.61-7.79,0-15.57,0-23.36,0h0c-7.74-.01-15.49-.01-23.23,0-2.85,0-3.13.3-3.12,3.09,0,11.52.02,23.03,0,34.55,0,2.61.62,3.34,3.28,3.34,15.41.02,30.81.02,46.22,0,2.1,0,2.92-.76,2.93-2.83.02-11.85.01-23.7-.02-35.54Zm-36.43,5.51c2.14,0,3.87,1.73,3.87,3.87s-1.73,3.87-3.87,3.87-3.87-1.73-3.87-3.87,1.73-3.87,3.87-3.87Zm30.15,25.44c-.15.3-.66.26-1.01.26-6.29,0-12.58,0-18.87,0-6.21,0-12.41,0-18.62-.01-.47,0-1.19.04-1.33-.37-.19-.55.28-.9.6-1.28,2.93-3.45,5.88-6.88,8.77-10.36.75-.91,1.23-.79,1.91.06,1.45,1.82,2.99,3.56,4.45,5.37.55.69.86.76,1.48-.01,2.65-3.25,5.4-6.41,8.08-9.64.58-.71.97-.67,1.53-.01,3.09,3.64,6.2,7.26,9.3,10.89,1.13,1.33,2.26,2.66,3.38,3.99.27.32.57.65.34,1.11Z"/>
    </g>
  </g>
</svg>